<svg xmlns="http://www.w3.org/2000/svg" xmlns:xlink="http://www.w3.org/1999/xlink" width="40" zoomAndPan="magnify" viewBox="0 0 30 30.000001" height="40" preserveAspectRatio="xMidYMid meet" version="1.0"><defs><clipPath id="id1"><path d="M 3.296875 1.160156 L 26.523438 1.160156 L 26.523438 28 L 3.296875 28 Z M 3.296875 1.160156 " clip-rule="nonzero"/></clipPath></defs><g clip-path="url(#id1)"><path fill="#e44d26" d="M 5.40625 25.273438 L 3.289062 1.234375 L 26.527344 1.234375 L 24.410156 25.269531 L 14.894531 27.941406 Z M 5.40625 25.273438 " fill-opacity="1" fill-rule="nonzero"/></g><path fill="#f16529" d="M 22.597656 23.738281 L 24.410156 3.199219 L 14.910156 3.199219 L 14.910156 25.898438 Z M 22.597656 23.738281 " fill-opacity="1" fill-rule="nonzero"/><path fill="#ebebeb" d="M 14.898438 6.148438 L 7.613281 6.148438 L 8.398438 15.0625 L 14.910156 15.0625 L 14.910156 12.117188 L 11.058594 12.117188 L 10.792969 9.097656 L 14.910156 9.097656 L 14.910156 6.148438 Z M 14.910156 19.761719 L 14.898438 19.765625 L 11.65625 18.878906 L 11.449219 16.527344 L 8.527344 16.527344 L 8.9375 21.15625 L 14.894531 22.828125 L 14.910156 22.824219 Z M 14.910156 19.761719 " fill-opacity="1" fill-rule="nonzero"/><path fill="#ffffff" d="M 14.898438 15.0625 L 18.480469 15.0625 L 18.152344 18.886719 L 14.90625 19.773438 L 14.90625 22.839844 L 20.871094 21.167969 L 21.671875 12.113281 L 14.910156 12.113281 Z M 22.117188 6.941406 L 22.1875 6.148438 L 14.898438 6.148438 L 14.898438 9.097656 L 21.925781 9.097656 L 21.980469 8.433594 Z M 22.117188 6.941406 " fill-opacity="1" fill-rule="nonzero"/></svg>