<?xml version="1.0" encoding="UTF-8"?>
<svg xmlns="http://www.w3.org/2000/svg" xmlns:xlink="http://www.w3.org/1999/xlink" viewBox="0 0 48 48" width="48px" height="48px">
<g id="surface47550540">
<path style=" stroke:none;fill-rule:nonzero;fill:rgb(98.039216%,25.098041%,74.509805%);fill-opacity:1;" d="M 37.40625 23.765625 L 34.078125 23.765625 C 34.152344 24.742188 34.226562 25.726562 34.226562 26.710938 C 34.273438 26.757812 34.3125 26.8125 34.339844 26.867188 C 34.339844 26.867188 34.339844 26.867188 34.351562 26.867188 C 34.414062 26.898438 34.5 26.914062 34.574219 26.933594 C 34.847656 27 35.128906 27.046875 35.410156 27.074219 C 35.839844 27.121094 36.488281 27.1875 36.769531 27.085938 C 37.386719 26.851562 37.554688 26.417969 37.566406 25.789062 C 37.574219 25.210938 37.574219 24.617188 37.585938 24.039062 C 37.585938 23.933594 37.585938 23.839844 37.59375 23.738281 C 37.527344 23.757812 37.472656 23.765625 37.40625 23.765625 Z M 37.519531 22.039062 C 37.460938 21.582031 37.378906 20.914062 36.976562 20.617188 C 37.03125 20.664062 36.789062 20.578125 36.722656 20.570312 C 36.601562 20.550781 36.488281 20.53125 36.367188 20.523438 C 36.066406 20.503906 35.757812 20.503906 35.457031 20.53125 C 35.109375 20.570312 34.378906 20.597656 34.171875 20.953125 C 34.117188 21.054688 34.03125 21.132812 33.945312 21.167969 C 33.945312 21.695312 33.976562 22.21875 34.003906 22.742188 L 37.320312 22.742188 C 37.414062 22.742188 37.5 22.761719 37.574219 22.800781 C 37.566406 22.546875 37.546875 22.292969 37.519531 22.039062 Z M 33.121094 24.898438 C 32.023438 24.898438 30.929688 24.898438 29.839844 25.023438 C 28.011719 25.21875 26.117188 25.164062 24.28125 25.171875 C 22.398438 25.191406 20.503906 25.179688 18.617188 25.179688 C 17.757812 25.179688 16.894531 25.199219 16.039062 25.179688 C 15.742188 25.171875 15.382812 25.191406 15.085938 25.097656 C 15.085938 25.351562 15.09375 25.601562 15.074219 25.847656 C 18.507812 25.847656 21.9375 25.867188 25.367188 25.847656 C 26.316406 25.835938 27.261719 25.828125 28.210938 25.78125 C 28.875 25.753906 29.523438 25.695312 30.195312 25.742188 C 30.777344 25.789062 31.351562 25.855469 31.929688 25.855469 C 32.316406 25.855469 32.820312 25.894531 33.179688 25.695312 C 33.148438 25.425781 33.140625 25.164062 33.121094 24.898438 Z M 13.882812 23.632812 L 10.554688 23.632812 C 10.632812 24.609375 10.707031 25.59375 10.707031 26.578125 C 10.753906 26.625 10.789062 26.679688 10.820312 26.738281 C 10.820312 26.738281 10.820312 26.738281 10.828125 26.738281 C 10.894531 26.765625 10.976562 26.785156 11.054688 26.804688 C 11.324219 26.867188 11.605469 26.914062 11.886719 26.945312 C 12.320312 26.992188 12.964844 27.054688 13.246094 26.953125 C 13.507812 26.851562 13.695312 26.71875 13.820312 26.539062 C 13.714844 26.296875 13.78125 25.988281 14.035156 25.882812 C 14.042969 25.808594 14.042969 25.742188 14.042969 25.660156 C 14.054688 25.078125 14.054688 24.488281 14.0625 23.90625 C 14.0625 23.804688 14.0625 23.710938 14.070312 23.605469 C 14.007812 23.625 13.949219 23.632812 13.882812 23.632812 Z M 13.882812 23.632812 "/>
<path style=" stroke:none;fill-rule:nonzero;fill:rgb(100%,100%,100%);fill-opacity:1;" d="M 43.257812 19.125 C 43.152344 17.851562 42.863281 16.238281 41.652344 15.535156 C 40.835938 15.054688 39.9375 15.039062 39.007812 15.027344 C 37.648438 15.027344 36.300781 15.09375 34.941406 15.179688 C 32.242188 15.347656 29.558594 15.476562 26.859375 15.515625 C 23.832031 15.5625 20.804688 15.515625 17.785156 15.5625 C 14.953125 15.601562 12.121094 15.757812 9.300781 15.582031 C 7.566406 15.46875 4.527344 14.980469 4.292969 17.417969 C 4.199219 18.421875 4.414062 19.414062 4.414062 20.410156 C 4.414062 21.019531 4.359375 21.628906 4.273438 22.226562 C 4.191406 22.875 4.085938 23.550781 4.226562 24.207031 C 4.246094 24.28125 4.246094 24.355469 4.238281 24.421875 C 6.019531 24.402344 7.808594 24.300781 9.589844 24.289062 C 9.515625 23.210938 9.421875 22.125 9.421875 21.046875 C 9.421875 20.820312 9.535156 20.671875 9.683594 20.585938 C 9.683594 20.511719 9.710938 20.4375 9.75 20.363281 C 10.152344 19.660156 11.023438 19.453125 11.773438 19.378906 C 12.460938 19.3125 13.472656 19.238281 14.070312 19.640625 C 14.726562 20.089844 14.945312 20.980469 15.039062 21.710938 C 15.140625 22.480469 15.121094 23.257812 15.101562 24.039062 C 15.195312 24.039062 15.289062 24.046875 15.382812 24.09375 C 15.542969 24.195312 15.929688 24.148438 16.117188 24.148438 C 16.472656 24.148438 16.820312 24.148438 17.175781 24.148438 L 19.773438 24.148438 C 21.496094 24.148438 23.230469 24.148438 24.957031 24.132812 C 27.664062 24.101562 30.367188 23.886719 33.074219 23.867188 C 33.007812 22.976562 32.945312 22.078125 32.945312 21.1875 C 32.945312 20.960938 33.054688 20.8125 33.207031 20.726562 C 33.207031 20.652344 33.234375 20.578125 33.273438 20.503906 C 33.675781 19.800781 34.546875 19.59375 35.296875 19.519531 C 35.980469 19.453125 36.992188 19.378906 37.59375 19.78125 C 38.25 20.230469 38.464844 21.121094 38.558594 21.851562 C 38.632812 22.472656 38.644531 23.101562 38.632812 23.726562 C 40.152344 23.71875 41.664062 23.632812 43.171875 23.605469 C 43.21875 22.117188 43.367188 20.617188 43.257812 19.125 Z M 43.257812 19.125 "/>
<path style=" stroke:none;fill-rule:nonzero;fill:rgb(0.784314%,95.294118%,95.686275%);fill-opacity:1;" d="M 34.707031 9.234375 C 34.601562 8.476562 34.453125 7.648438 33.964844 7.03125 C 33.570312 6.523438 33 6.347656 32.390625 6.320312 C 32.523438 6.957031 32.492188 7.621094 32.492188 8.277344 C 33.382812 8.699219 33.75 9.882812 33.898438 10.808594 C 34.078125 11.933594 34.050781 13.058594 34.039062 14.195312 C 34.3125 14.175781 34.585938 14.164062 34.847656 14.148438 C 34.960938 14.136719 35.070312 14.136719 35.183594 14.128906 C 34.714844 12.582031 34.914062 10.828125 34.707031 9.234375 Z M 34.707031 9.234375 "/>
<path style=" stroke:none;fill-rule:nonzero;fill:rgb(98.039216%,25.098041%,74.509805%);fill-opacity:1;" d="M 31.226562 6.007812 C 30.882812 5.296875 30.019531 5.230469 29.316406 5.230469 C 28.507812 5.230469 27.710938 5.34375 26.914062 5.351562 C 25.78125 5.363281 24.636719 5.351562 23.492188 5.351562 C 22.164062 5.351562 20.839844 5.269531 19.507812 5.277344 C 18.84375 5.277344 18.160156 5.296875 17.503906 5.410156 C 17.257812 5.445312 17.015625 5.503906 16.789062 5.597656 C 16.726562 5.625 16.667969 5.652344 16.601562 5.699219 C 16.632812 5.679688 16.566406 5.765625 16.585938 5.71875 C 16.574219 5.738281 16.566406 5.757812 16.554688 5.773438 C 16.527344 5.839844 16.492188 5.886719 16.453125 5.933594 C 16.445312 5.972656 16.433594 6.019531 16.414062 6.054688 C 16.480469 5.898438 16.40625 6.140625 16.398438 6.1875 C 16.378906 6.289062 16.367188 6.382812 16.359375 6.488281 C 16.339844 6.730469 16.320312 6.976562 16.320312 7.210938 C 16.320312 7.5 16.320312 7.800781 16.367188 8.089844 C 16.367188 8.101562 16.367188 8.109375 16.367188 8.117188 C 16.480469 8.148438 16.585938 8.210938 16.648438 8.351562 C 16.976562 8.972656 17.691406 9.179688 18.335938 9.289062 C 19.144531 9.429688 19.96875 9.449219 20.785156 9.429688 C 21.917969 9.414062 23.042969 9.402344 24.179688 9.402344 C 25.648438 9.414062 27.132812 9.394531 28.59375 9.242188 C 29.230469 9.179688 29.878906 9.101562 30.488281 8.90625 C 30.703125 8.839844 30.882812 8.773438 31.039062 8.671875 C 31.144531 8.605469 31.097656 8.664062 31.179688 8.539062 C 31.152344 8.585938 31.179688 8.523438 31.179688 8.53125 C 31.21875 8.351562 31.332031 8.242188 31.453125 8.175781 C 31.492188 7.460938 31.546875 6.664062 31.226562 6.007812 Z M 31.226562 6.007812 "/>
<path style=" stroke:none;fill-rule:nonzero;fill:rgb(0.784314%,95.294118%,95.686275%);fill-opacity:1;" d="M 15.335938 6.1875 C 14.136719 6.261719 13.050781 7.144531 12.476562 8.164062 C 12.421875 8.269531 12.402344 8.34375 12.394531 8.351562 C 12.355469 8.484375 12.320312 8.617188 12.289062 8.757812 C 12.195312 9.148438 12.121094 9.542969 12.054688 9.945312 C 11.886719 10.921875 11.757812 11.914062 11.679688 12.898438 C 11.652344 13.257812 11.632812 13.621094 11.644531 13.988281 C 11.644531 14.082031 11.652344 14.183594 11.664062 14.277344 C 11.765625 14.363281 11.820312 14.492188 11.820312 14.625 C 12.515625 14.625 13.199219 14.625 13.894531 14.617188 C 13.867188 13.273438 13.707031 11.933594 13.789062 10.585938 C 13.847656 9.535156 13.96875 7.519531 15.308594 7.292969 C 15.300781 6.945312 15.289062 6.554688 15.335938 6.1875 Z M 15.335938 6.1875 "/>
<path style=" stroke:none;fill-rule:nonzero;fill:rgb(98.039216%,25.098041%,74.509805%);fill-opacity:1;" d="M 9.628906 25.320312 C 8.101562 25.332031 6.570312 25.414062 5.042969 25.445312 C 5.304688 25.734375 5.53125 26.054688 5.71875 26.410156 C 7.011719 26.4375 8.4375 26.578125 9.664062 26.175781 C 9.65625 25.882812 9.648438 25.601562 9.628906 25.320312 Z M 9.628906 25.320312 "/>
<path style=" stroke:none;fill-rule:nonzero;fill:rgb(100%,100%,100%);fill-opacity:1;" d="M 40.21875 26.726562 C 40.199219 26.839844 40.152344 26.953125 40.058594 27.027344 C 40.058594 27.039062 40.050781 27.054688 40.050781 27.074219 C 40.011719 27.226562 39.992188 27.375 39.976562 27.535156 C 39.929688 27.984375 39.910156 28.433594 39.898438 28.894531 C 39.882812 30.019531 39.898438 31.144531 39.929688 32.269531 C 39.992188 35.035156 40.144531 37.847656 39.882812 40.601562 C 40.050781 40.601562 40.21875 40.601562 40.386719 40.601562 C 40.386719 40.472656 40.398438 40.351562 40.398438 40.238281 C 40.433594 39.542969 40.519531 38.859375 40.613281 38.164062 C 40.800781 36.796875 41.070312 35.429688 41.183594 34.058594 C 41.183594 34.039062 41.183594 34.03125 41.183594 34.023438 C 41.183594 33.957031 41.195312 33.890625 41.195312 33.816406 C 41.203125 33.609375 41.210938 33.414062 41.230469 33.207031 C 41.257812 32.773438 41.289062 32.351562 41.324219 31.921875 C 41.410156 30.957031 41.511719 29.992188 41.699219 29.035156 C 41.851562 28.285156 42.027344 27.488281 42.320312 26.726562 Z M 40.21875 26.726562 "/>
<path style=" stroke:none;fill-rule:nonzero;fill:rgb(0.784314%,95.294118%,95.686275%);fill-opacity:1;" d="M 38.867188 31.6875 C 38.851562 30.515625 38.820312 29.324219 38.886719 28.152344 C 38.90625 27.789062 38.886719 27.1875 39.046875 26.726562 L 38.484375 26.726562 C 38.476562 26.726562 38.464844 26.726562 38.457031 26.726562 C 38.4375 26.773438 38.429688 26.820312 38.410156 26.867188 C 38.136719 27.609375 37.359375 28.132812 36.570312 28.164062 C 36.007812 28.179688 33.214844 28.144531 33.289062 27.113281 C 33.226562 27.039062 33.1875 26.933594 33.1875 26.8125 C 33.1875 26.804688 33.1875 26.804688 33.1875 26.792969 C 32.679688 26.945312 32.089844 26.933594 31.527344 26.886719 C 31.527344 27.039062 31.433594 27.1875 31.3125 27.28125 C 31.3125 27.289062 31.3125 27.289062 31.3125 27.300781 C 31.304688 27.496094 31.3125 27.703125 31.3125 27.898438 C 31.320312 28.292969 31.351562 28.6875 31.367188 29.082031 C 31.414062 30.46875 31.453125 31.847656 31.566406 33.234375 C 31.753906 35.558594 31.929688 37.894531 31.929688 40.226562 C 31.929688 40.378906 31.882812 40.492188 31.800781 40.585938 C 34.050781 40.59375 36.289062 40.601562 38.539062 40.601562 C 38.605469 40.5 38.71875 40.414062 38.851562 40.378906 C 39.019531 38.484375 38.933594 36.582031 38.914062 34.6875 C 38.914062 33.683594 38.886719 32.691406 38.867188 31.6875 Z M 38.867188 31.6875 "/>
<path style=" stroke:none;fill-rule:nonzero;fill:rgb(98.039216%,25.098041%,74.509805%);fill-opacity:1;" d="M 38.652344 24.757812 C 38.644531 24.757812 38.644531 24.757812 38.632812 24.757812 L 38.585938 24.757812 C 38.585938 25.070312 38.605469 25.386719 38.597656 25.695312 L 42.789062 25.695312 C 43.023438 25.304688 43.304688 24.9375 43.640625 24.617188 C 41.980469 24.648438 40.320312 24.75 38.652344 24.757812 Z M 38.652344 24.757812 "/>
<path style=" stroke:none;fill-rule:nonzero;fill:rgb(0.784314%,95.294118%,95.686275%);fill-opacity:1;" d="M 15.628906 36.429688 C 15.589844 35.101562 15.609375 33.769531 15.554688 32.4375 C 15.496094 31.132812 15.476562 29.785156 15.28125 28.5 C 15.207031 28.03125 14.992188 27.300781 15.242188 26.867188 C 15.113281 26.867188 14.972656 26.867188 14.839844 26.867188 C 14.53125 27.535156 13.800781 27.992188 13.058594 28.023438 C 12.542969 28.039062 10.144531 28.003906 9.816406 27.207031 C 9.789062 27.214844 9.75 27.226562 9.722656 27.234375 C 9.757812 31.613281 10.507812 35.953125 10.554688 40.332031 C 12.28125 40.339844 13.996094 40.359375 15.710938 40.378906 C 15.710938 39.066406 15.664062 37.742188 15.628906 36.429688 Z M 15.628906 36.429688 "/>
<path style=" stroke:none;fill-rule:nonzero;fill:rgb(100%,100%,100%);fill-opacity:1;" d="M 30.910156 40.3125 C 30.898438 37.554688 30.617188 34.808594 30.449219 32.054688 C 30.367188 30.769531 30.347656 29.484375 30.300781 28.199219 C 30.28125 27.789062 30.226562 27.300781 30.328125 26.886719 C 30.335938 26.851562 30.347656 26.8125 30.367188 26.773438 C 30.355469 26.792969 30.355469 26.792969 30.367188 26.773438 C 28.855469 26.664062 27.320312 26.839844 25.800781 26.859375 C 22.632812 26.886719 19.460938 26.867188 16.292969 26.867188 C 16.351562 27.054688 16.304688 27.289062 16.152344 27.429688 C 16.152344 27.441406 16.152344 27.441406 16.152344 27.449219 C 16.164062 27.554688 16.171875 27.65625 16.191406 27.757812 C 16.21875 27.945312 16.265625 28.125 16.292969 28.3125 C 16.367188 28.78125 16.378906 29.257812 16.414062 29.726562 C 16.507812 30.945312 16.59375 32.164062 16.613281 33.394531 C 16.640625 35.664062 16.742188 37.921875 16.753906 40.191406 C 16.753906 40.199219 16.753906 40.21875 16.753906 40.226562 L 16.753906 40.386719 C 19.398438 40.425781 22.039062 40.472656 24.683594 40.507812 C 26.785156 40.539062 28.882812 40.566406 30.984375 40.574219 C 30.9375 40.507812 30.910156 40.425781 30.910156 40.3125 Z M 8.691406 27.414062 C 7.855469 27.496094 6.992188 27.460938 6.160156 27.441406 C 6.582031 28.695312 6.703125 30.121094 6.871094 31.339844 C 7.085938 32.953125 7.367188 34.574219 7.714844 36.167969 C 7.894531 37.011719 8.070312 37.855469 8.304688 38.679688 C 8.457031 39.214844 8.625 39.769531 8.699219 40.320312 C 8.980469 40.320312 9.253906 40.320312 9.535156 40.320312 C 9.46875 36.007812 8.738281 31.734375 8.691406 27.414062 Z M 8.691406 27.414062 "/>
<path style=" stroke:none;fill-rule:nonzero;fill:rgb(98.039216%,25.098041%,74.509805%);fill-opacity:1;" d="M 13.996094 21.898438 C 13.941406 21.441406 13.855469 20.773438 13.453125 20.476562 C 13.507812 20.523438 13.265625 20.4375 13.199219 20.429688 C 13.078125 20.410156 12.964844 20.390625 12.84375 20.382812 C 12.542969 20.363281 12.234375 20.363281 11.933594 20.390625 C 11.585938 20.429688 10.855469 20.457031 10.648438 20.8125 C 10.59375 20.914062 10.507812 20.992188 10.425781 21.027344 C 10.425781 21.554688 10.453125 22.078125 10.480469 22.601562 L 13.800781 22.601562 C 13.894531 22.601562 13.976562 22.621094 14.054688 22.660156 C 14.042969 22.40625 14.023438 22.152344 13.996094 21.898438 Z M 13.996094 21.898438 "/>
<path style=" stroke:none;fill-rule:nonzero;fill:rgb(0%,0%,0%);fill-opacity:1;" d="M 44.726562 24.628906 C 44.699219 24.429688 44.605469 24.261719 44.585938 24.066406 C 44.570312 23.820312 44.390625 23.652344 44.164062 23.605469 C 44.296875 20.710938 45.027344 16.425781 42.101562 14.617188 C 41.25 14.089844 40.238281 14.035156 39.261719 14.015625 C 38.257812 13.996094 37.257812 14.023438 36.253906 14.082031 C 35.972656 13.3125 35.945312 12.460938 35.898438 11.652344 C 35.839844 10.648438 35.8125 9.636719 35.644531 8.644531 C 35.484375 7.726562 35.183594 6.84375 34.539062 6.148438 C 33.890625 5.464844 32.90625 5.269531 31.996094 5.304688 C 31.601562 4.714844 30.964844 4.386719 30.234375 4.273438 C 29.277344 4.125 28.292969 4.246094 27.335938 4.3125 C 26.148438 4.398438 24.945312 4.339844 23.757812 4.339844 C 22.238281 4.339844 20.726562 4.246094 19.210938 4.265625 C 18.449219 4.273438 17.691406 4.320312 16.941406 4.480469 C 16.492188 4.574219 15.964844 4.773438 15.703125 5.183594 C 14.203125 5.148438 12.757812 5.945312 11.886719 7.152344 C 11.335938 7.921875 11.195312 8.839844 11.035156 9.757812 C 10.835938 10.894531 10.695312 12.046875 10.632812 13.199219 C 10.613281 13.507812 10.539062 14.148438 10.660156 14.625 C 9.976562 14.605469 9.289062 14.578125 8.605469 14.53125 C 6.617188 14.390625 4.050781 14.382812 3.367188 16.6875 C 3.074219 17.652344 3.242188 18.730469 3.328125 19.714844 C 3.421875 20.886719 3.195312 22.011719 3.132812 23.175781 C 3.101562 23.652344 3.140625 24.101562 3.242188 24.570312 C 3.273438 24.683594 3.320312 24.769531 3.382812 24.824219 C 3.355469 25.003906 3.402344 25.199219 3.535156 25.332031 C 3.554688 25.480469 3.628906 25.613281 3.789062 25.714844 C 4.695312 26.277344 5.082031 27.375 5.34375 28.359375 C 5.644531 29.476562 5.746094 30.636719 5.90625 31.78125 C 6.121094 33.308594 6.402344 34.847656 6.722656 36.355469 C 6.890625 37.164062 7.050781 37.96875 7.265625 38.765625 C 7.460938 39.46875 7.707031 40.171875 7.726562 40.914062 C 7.734375 41.296875 8.070312 41.429688 8.363281 41.351562 C 8.417969 41.371094 8.484375 41.390625 8.558594 41.390625 C 13.96875 41.390625 19.378906 41.503906 24.777344 41.585938 C 29.605469 41.664062 34.425781 41.671875 39.253906 41.671875 C 39.300781 41.679688 39.347656 41.679688 39.394531 41.671875 C 39.945312 41.671875 40.492188 41.671875 41.042969 41.671875 C 41.390625 41.671875 41.539062 41.382812 41.492188 41.109375 C 41.523438 40.976562 41.511719 40.835938 41.429688 40.714844 C 41.417969 40.660156 41.417969 40.59375 41.417969 40.539062 C 41.417969 40.3125 41.429688 40.117188 41.445312 39.898438 C 41.503906 39.234375 41.597656 38.570312 41.691406 37.902344 C 41.859375 36.683594 42.09375 35.464844 42.195312 34.238281 C 42.328125 32.691406 42.382812 31.152344 42.648438 29.617188 C 42.890625 28.164062 43.265625 26.210938 44.523438 25.257812 C 44.664062 25.152344 44.71875 25.023438 44.726562 24.882812 C 44.738281 24.796875 44.746094 24.710938 44.726562 24.628906 Z M 33.964844 7.03125 C 34.453125 7.648438 34.601562 8.476562 34.707031 9.234375 C 34.914062 10.828125 34.714844 12.570312 35.195312 14.128906 C 35.082031 14.136719 34.96875 14.136719 34.855469 14.148438 C 34.585938 14.164062 34.3125 14.175781 34.050781 14.195312 C 34.058594 13.058594 34.085938 11.933594 33.910156 10.808594 C 33.757812 9.882812 33.402344 8.699219 32.503906 8.277344 C 32.503906 7.621094 32.53125 6.964844 32.398438 6.320312 C 33 6.347656 33.570312 6.535156 33.964844 7.03125 Z M 16.359375 6.476562 C 16.367188 6.375 16.378906 6.28125 16.398438 6.179688 C 16.40625 6.121094 16.480469 5.886719 16.414062 6.046875 C 16.433594 6.007812 16.445312 5.960938 16.453125 5.925781 C 16.492188 5.886719 16.527344 5.832031 16.554688 5.765625 C 16.566406 5.746094 16.574219 5.726562 16.585938 5.710938 C 16.566406 5.746094 16.640625 5.671875 16.601562 5.691406 C 16.667969 5.644531 16.726562 5.617188 16.789062 5.585938 C 17.015625 5.492188 17.257812 5.4375 17.503906 5.398438 C 18.167969 5.289062 18.84375 5.277344 19.507812 5.269531 C 20.839844 5.257812 22.164062 5.34375 23.492188 5.34375 C 24.628906 5.34375 25.773438 5.351562 26.914062 5.34375 C 27.722656 5.335938 28.519531 5.222656 29.316406 5.222656 C 30.019531 5.222656 30.882812 5.289062 31.226562 6 C 31.546875 6.65625 31.492188 7.453125 31.472656 8.175781 C 31.339844 8.230469 31.238281 8.34375 31.199219 8.53125 C 31.199219 8.523438 31.171875 8.578125 31.199219 8.539062 C 31.117188 8.652344 31.152344 8.597656 31.058594 8.671875 C 30.898438 8.785156 30.722656 8.839844 30.507812 8.90625 C 29.898438 9.101562 29.25 9.179688 28.613281 9.242188 C 27.148438 9.394531 25.667969 9.414062 24.195312 9.402344 C 23.0625 9.394531 21.9375 9.402344 20.804688 9.429688 C 19.988281 9.449219 19.164062 9.429688 18.355469 9.289062 C 17.710938 9.179688 16.996094 8.960938 16.667969 8.351562 C 16.59375 8.210938 16.492188 8.148438 16.386719 8.117188 C 16.386719 8.109375 16.386719 8.101562 16.386719 8.089844 C 16.351562 7.800781 16.339844 7.5 16.339844 7.210938 C 16.332031 6.964844 16.339844 6.722656 16.359375 6.476562 Z M 15.75 9.160156 C 15.84375 9.234375 15.945312 9.273438 16.050781 9.28125 C 17.015625 10.453125 19.070312 10.453125 20.4375 10.460938 C 21.75 10.460938 23.054688 10.425781 24.367188 10.433594 C 25.96875 10.445312 27.582031 10.425781 29.164062 10.21875 C 29.980469 10.117188 31.414062 9.964844 31.988281 9.195312 C 32.726562 9.488281 32.859375 10.707031 32.933594 11.382812 C 33.046875 12.335938 33.019531 13.292969 33.007812 14.25 C 30.628906 14.382812 28.246094 14.476562 25.855469 14.492188 C 22.828125 14.53125 19.800781 14.484375 16.78125 14.539062 C 16.152344 14.550781 15.535156 14.570312 14.90625 14.578125 C 14.886719 13.445312 14.765625 12.308594 14.773438 11.175781 C 14.785156 10.492188 14.832031 9.796875 14.992188 9.132812 C 15.039062 8.914062 15.140625 8.632812 15.242188 8.492188 C 15.289062 8.429688 15.320312 8.390625 15.347656 8.363281 C 15.414062 8.679688 15.523438 8.972656 15.75 9.160156 Z M 11.679688 12.898438 C 11.757812 11.90625 11.886719 10.921875 12.054688 9.945312 C 12.121094 9.554688 12.195312 9.148438 12.289062 8.757812 C 12.320312 8.625 12.355469 8.484375 12.394531 8.351562 C 12.394531 8.34375 12.414062 8.269531 12.476562 8.164062 C 13.050781 7.152344 14.136719 6.273438 15.335938 6.1875 C 15.289062 6.554688 15.289062 6.945312 15.300781 7.304688 C 13.96875 7.527344 13.847656 9.542969 13.78125 10.59375 C 13.707031 11.945312 13.855469 13.273438 13.882812 14.625 C 13.191406 14.632812 12.507812 14.644531 11.8125 14.632812 C 11.8125 14.503906 11.765625 14.371094 11.652344 14.289062 C 11.644531 14.195312 11.632812 14.089844 11.632812 13.996094 C 11.632812 13.621094 11.652344 13.257812 11.679688 12.898438 Z M 4.210938 24.429688 C 4.21875 24.367188 4.21875 24.289062 4.199219 24.214844 C 4.058594 23.570312 4.164062 22.894531 4.246094 22.238281 C 4.332031 21.628906 4.378906 21.027344 4.386719 20.417969 C 4.398438 19.425781 4.171875 18.429688 4.265625 17.429688 C 4.5 14.992188 7.539062 15.476562 9.273438 15.589844 C 12.101562 15.769531 14.933594 15.609375 17.757812 15.570312 C 20.785156 15.535156 23.8125 15.570312 26.832031 15.523438 C 29.53125 15.476562 32.222656 15.355469 34.914062 15.1875 C 36.273438 15.101562 37.621094 15.039062 38.980469 15.039062 C 39.910156 15.039062 40.808594 15.066406 41.625 15.542969 C 42.835938 16.246094 43.125 17.859375 43.226562 19.132812 C 43.339844 20.625 43.191406 22.117188 43.125 23.605469 C 41.617188 23.644531 40.105469 23.726562 38.585938 23.726562 C 38.597656 23.101562 38.585938 22.472656 38.511719 21.851562 C 38.417969 21.113281 38.203125 20.222656 37.546875 19.78125 C 36.945312 19.378906 35.933594 19.453125 35.25 19.519531 C 34.5 19.59375 33.628906 19.800781 33.226562 20.503906 C 33.179688 20.578125 33.160156 20.664062 33.160156 20.726562 C 33.007812 20.8125 32.898438 20.972656 32.898438 21.1875 C 32.898438 22.085938 32.960938 22.976562 33.027344 23.867188 C 30.320312 23.886719 27.617188 24.09375 24.910156 24.132812 C 23.183594 24.148438 21.449219 24.148438 19.726562 24.148438 L 17.128906 24.148438 C 16.773438 24.148438 16.425781 24.148438 16.070312 24.148438 C 15.871094 24.148438 15.488281 24.195312 15.335938 24.09375 C 15.253906 24.046875 15.148438 24.027344 15.054688 24.039062 C 15.074219 23.257812 15.085938 22.480469 14.992188 21.710938 C 14.898438 20.972656 14.679688 20.082031 14.023438 19.640625 C 13.425781 19.238281 12.414062 19.3125 11.726562 19.378906 C 10.976562 19.453125 10.105469 19.660156 9.703125 20.363281 C 9.65625 20.4375 9.636719 20.523438 9.636719 20.585938 C 9.488281 20.671875 9.375 20.832031 9.375 21.046875 C 9.382812 22.132812 9.46875 23.210938 9.542969 24.289062 C 7.78125 24.308594 6 24.414062 4.210938 24.429688 Z M 36.976562 20.617188 C 37.378906 20.914062 37.460938 21.582031 37.519531 22.039062 C 37.546875 22.292969 37.566406 22.546875 37.574219 22.800781 C 37.5 22.761719 37.414062 22.742188 37.320312 22.742188 L 34.003906 22.742188 C 33.976562 22.21875 33.945312 21.695312 33.945312 21.167969 C 34.03125 21.132812 34.117188 21.054688 34.171875 20.953125 C 34.367188 20.597656 35.109375 20.558594 35.457031 20.53125 C 35.757812 20.503906 36.066406 20.503906 36.367188 20.523438 C 36.488281 20.53125 36.601562 20.550781 36.722656 20.570312 C 36.789062 20.578125 37.03125 20.664062 36.976562 20.617188 Z M 37.40625 23.765625 C 37.472656 23.765625 37.527344 23.757812 37.585938 23.738281 C 37.585938 23.839844 37.585938 23.933594 37.574219 24.039062 C 37.566406 24.617188 37.566406 25.210938 37.554688 25.789062 C 37.546875 26.417969 37.378906 26.851562 36.757812 27.085938 C 36.46875 27.195312 35.820312 27.121094 35.398438 27.074219 C 35.117188 27.046875 34.847656 27 34.566406 26.933594 C 34.492188 26.914062 34.40625 26.898438 34.339844 26.867188 C 34.339844 26.867188 34.339844 26.867188 34.332031 26.867188 C 34.304688 26.804688 34.265625 26.757812 34.21875 26.710938 C 34.210938 25.726562 34.132812 24.75 34.070312 23.765625 Z M 15.074219 25.085938 C 15.367188 25.191406 15.730469 25.171875 16.03125 25.171875 C 16.894531 25.191406 17.757812 25.171875 18.609375 25.171875 C 20.492188 25.171875 22.386719 25.171875 24.273438 25.164062 C 26.109375 25.144531 28.003906 25.199219 29.832031 25.011719 C 30.917969 24.898438 32.015625 24.890625 33.113281 24.890625 C 33.132812 25.152344 33.140625 25.425781 33.160156 25.6875 C 32.804688 25.882812 32.296875 25.847656 31.914062 25.847656 C 31.332031 25.847656 30.75 25.78125 30.179688 25.734375 C 29.511719 25.679688 28.867188 25.734375 28.191406 25.773438 C 27.242188 25.820312 26.296875 25.828125 25.351562 25.835938 C 21.917969 25.855469 18.488281 25.847656 15.054688 25.835938 C 15.085938 25.59375 15.085938 25.339844 15.074219 25.085938 Z M 13.808594 26.53125 C 13.6875 26.710938 13.507812 26.839844 13.238281 26.945312 C 12.945312 27.054688 12.300781 26.980469 11.878906 26.933594 C 11.597656 26.90625 11.324219 26.859375 11.042969 26.792969 C 10.96875 26.773438 10.882812 26.757812 10.820312 26.726562 C 10.820312 26.726562 10.820312 26.726562 10.808594 26.726562 C 10.78125 26.664062 10.742188 26.617188 10.695312 26.570312 C 10.6875 25.585938 10.613281 24.609375 10.546875 23.625 L 13.875 23.625 C 13.941406 23.625 13.996094 23.617188 14.054688 23.597656 C 14.054688 23.699219 14.054688 23.792969 14.042969 23.898438 C 14.035156 24.476562 14.035156 25.070312 14.023438 25.648438 C 14.023438 25.726562 14.023438 25.800781 14.015625 25.875 C 13.773438 25.988281 13.714844 26.289062 13.808594 26.53125 Z M 13.453125 20.476562 C 13.855469 20.773438 13.941406 21.441406 13.996094 21.898438 C 14.023438 22.152344 14.042969 22.40625 14.054688 22.660156 C 13.976562 22.621094 13.894531 22.601562 13.800781 22.601562 L 10.480469 22.601562 C 10.453125 22.078125 10.425781 21.554688 10.425781 21.027344 C 10.507812 20.992188 10.59375 20.914062 10.648438 20.8125 C 10.847656 20.457031 11.585938 20.417969 11.933594 20.390625 C 12.234375 20.363281 12.542969 20.363281 12.84375 20.382812 C 12.964844 20.390625 13.078125 20.410156 13.199219 20.429688 C 13.265625 20.4375 13.507812 20.523438 13.453125 20.476562 Z M 8.691406 40.320312 C 8.617188 39.769531 8.457031 39.214844 8.296875 38.679688 C 8.0625 37.855469 7.882812 37.003906 7.707031 36.167969 C 7.359375 34.574219 7.078125 32.960938 6.863281 31.339844 C 6.703125 30.121094 6.570312 28.707031 6.148438 27.441406 C 6.984375 27.46875 7.847656 27.507812 8.679688 27.414062 C 8.726562 31.726562 9.460938 36.007812 9.515625 40.320312 C 9.253906 40.320312 8.972656 40.320312 8.691406 40.320312 Z M 5.71875 26.410156 C 5.53125 26.0625 5.316406 25.734375 5.042969 25.445312 C 6.570312 25.40625 8.101562 25.332031 9.628906 25.320312 C 9.648438 25.601562 9.65625 25.882812 9.664062 26.164062 C 8.4375 26.578125 7.011719 26.4375 5.71875 26.410156 Z M 10.554688 40.332031 C 10.507812 35.953125 9.75 31.613281 9.722656 27.234375 C 9.75 27.226562 9.789062 27.214844 9.816406 27.207031 C 10.144531 28.011719 12.542969 28.050781 13.058594 28.023438 C 13.789062 27.992188 14.523438 27.535156 14.839844 26.867188 C 14.972656 26.867188 15.113281 26.867188 15.242188 26.867188 C 15 27.300781 15.214844 28.03125 15.28125 28.5 C 15.476562 29.785156 15.496094 31.144531 15.554688 32.4375 C 15.609375 33.769531 15.589844 35.101562 15.628906 36.429688 C 15.664062 37.742188 15.710938 39.054688 15.722656 40.378906 C 13.996094 40.351562 12.28125 40.339844 10.554688 40.332031 Z M 24.683594 40.519531 C 22.039062 40.480469 19.398438 40.433594 16.753906 40.398438 L 16.753906 40.238281 C 16.753906 40.226562 16.753906 40.210938 16.753906 40.199219 C 16.742188 37.929688 16.640625 35.671875 16.613281 33.402344 C 16.59375 32.175781 16.507812 30.957031 16.414062 29.738281 C 16.378906 29.269531 16.359375 28.789062 16.292969 28.320312 C 16.265625 28.132812 16.226562 27.945312 16.191406 27.769531 C 16.171875 27.664062 16.164062 27.5625 16.152344 27.460938 C 16.152344 27.449219 16.152344 27.449219 16.152344 27.441406 C 16.304688 27.300781 16.351562 27.066406 16.292969 26.878906 C 19.460938 26.886719 22.632812 26.898438 25.800781 26.867188 C 27.320312 26.859375 28.855469 26.671875 30.367188 26.785156 C 30.355469 26.804688 30.355469 26.804688 30.367188 26.785156 C 30.355469 26.820312 30.335938 26.859375 30.328125 26.898438 C 30.226562 27.300781 30.28125 27.796875 30.300781 28.210938 C 30.347656 29.492188 30.367188 30.777344 30.449219 32.0625 C 30.628906 34.808594 30.910156 37.554688 30.910156 40.320312 C 30.910156 40.433594 30.9375 40.519531 30.984375 40.59375 C 28.882812 40.566406 26.785156 40.546875 24.683594 40.519531 Z M 38.867188 31.6875 C 38.886719 32.691406 38.914062 33.683594 38.925781 34.6875 C 38.945312 36.582031 39.019531 38.484375 38.859375 40.378906 C 38.738281 40.414062 38.625 40.5 38.550781 40.601562 C 36.300781 40.601562 34.058594 40.59375 31.808594 40.585938 C 31.882812 40.5 31.941406 40.378906 31.941406 40.226562 C 31.929688 37.894531 31.753906 35.558594 31.574219 33.234375 C 31.460938 31.847656 31.425781 30.46875 31.378906 29.082031 C 31.367188 28.6875 31.339844 28.292969 31.320312 27.898438 C 31.3125 27.703125 31.3125 27.496094 31.320312 27.300781 C 31.320312 27.289062 31.320312 27.289062 31.320312 27.28125 C 31.453125 27.179688 31.539062 27.039062 31.539062 26.886719 C 32.101562 26.933594 32.691406 26.933594 33.195312 26.792969 C 33.195312 26.804688 33.195312 26.804688 33.195312 26.8125 C 33.195312 26.945312 33.234375 27.046875 33.300781 27.113281 C 33.226562 28.132812 36.019531 28.179688 36.582031 28.164062 C 37.359375 28.132812 38.148438 27.609375 38.417969 26.867188 C 38.4375 26.820312 38.457031 26.773438 38.464844 26.726562 C 38.476562 26.726562 38.484375 26.726562 38.492188 26.726562 L 39.054688 26.726562 C 38.898438 27.1875 38.914062 27.796875 38.898438 28.152344 C 38.820312 29.324219 38.851562 30.507812 38.867188 31.6875 Z M 41.679688 29.023438 C 41.492188 29.980469 41.390625 30.945312 41.304688 31.914062 C 41.269531 32.34375 41.242188 32.765625 41.210938 33.195312 C 41.203125 33.402344 41.183594 33.601562 41.175781 33.804688 C 41.175781 33.871094 41.164062 33.9375 41.164062 34.011719 C 41.164062 34.023438 41.164062 34.03125 41.164062 34.050781 C 41.054688 35.429688 40.78125 36.796875 40.59375 38.15625 C 40.5 38.839844 40.414062 39.535156 40.378906 40.226562 C 40.367188 40.339844 40.367188 40.460938 40.367188 40.59375 C 40.199219 40.59375 40.03125 40.59375 39.863281 40.59375 C 40.125 37.835938 39.976562 35.015625 39.910156 32.257812 C 39.882812 31.132812 39.863281 30.007812 39.882812 28.882812 C 39.890625 28.433594 39.910156 27.976562 39.957031 27.523438 C 39.976562 27.375 39.992188 27.214844 40.03125 27.066406 C 40.039062 27.046875 40.039062 27.027344 40.039062 27.019531 C 40.132812 26.933594 40.191406 26.832031 40.199219 26.71875 L 42.289062 26.71875 C 42.019531 27.476562 41.832031 28.273438 41.679688 29.023438 Z M 42.789062 25.695312 L 38.597656 25.695312 C 38.605469 25.386719 38.585938 25.070312 38.585938 24.757812 L 38.632812 24.757812 C 38.644531 24.757812 38.644531 24.757812 38.652344 24.757812 C 40.320312 24.75 41.980469 24.648438 43.640625 24.628906 C 43.304688 24.9375 43.023438 25.304688 42.789062 25.695312 Z M 42.789062 25.695312 "/>
</g>
</svg>
