<svg xmlns="http://www.w3.org/2000/svg" xmlns:xlink="http://www.w3.org/1999/xlink" width="40" zoomAndPan="magnify" viewBox="0 0 30 30.000001" height="40" preserveAspectRatio="xMidYMid meet" version="1.0"><defs><clipPath id="id1"><path d="M 0.484375 0 L 29.515625 0 L 29.515625 29.03125 L 0.484375 29.03125 Z M 0.484375 0 " clip-rule="nonzero"/></clipPath></defs><g clip-path="url(#id1)"><path fill="#f7df1e" d="M 0.484375 0 L 29.515625 0 L 29.515625 29.03125 L 0.484375 29.03125 Z M 0.484375 0 " fill-opacity="1" fill-rule="nonzero"/></g><path fill="#000000" d="M 8.117188 24.261719 L 10.339844 22.917969 C 10.769531 23.675781 11.15625 24.320312 12.09375 24.320312 C 12.988281 24.320312 13.554688 23.96875 13.554688 22.605469 L 13.554688 13.328125 L 16.28125 13.328125 L 16.28125 22.644531 C 16.28125 25.46875 14.625 26.757812 12.210938 26.757812 C 10.027344 26.757812 8.761719 25.625 8.117188 24.261719 " fill-opacity="1" fill-rule="nonzero"/><path fill="#000000" d="M 17.765625 23.96875 L 19.988281 22.683594 C 20.570312 23.636719 21.332031 24.339844 22.675781 24.339844 C 23.804688 24.339844 24.527344 23.773438 24.527344 22.996094 C 24.527344 22.058594 23.785156 21.726562 22.539062 21.183594 L 21.859375 20.890625 C 19.890625 20.050781 18.582031 19 18.582031 16.777344 C 18.582031 14.730469 20.140625 13.171875 22.578125 13.171875 C 24.3125 13.171875 25.558594 13.777344 26.457031 15.355469 L 24.332031 16.71875 C 23.863281 15.882812 23.359375 15.550781 22.578125 15.550781 C 21.78125 15.550781 21.273438 16.058594 21.273438 16.71875 C 21.273438 17.539062 21.78125 17.871094 22.949219 18.375 L 23.628906 18.667969 C 25.949219 19.664062 27.257812 20.675781 27.257812 22.957031 C 27.257812 25.410156 25.328125 26.757812 22.734375 26.757812 C 20.199219 26.757812 18.5625 25.546875 17.765625 23.96875 " fill-opacity="1" fill-rule="nonzero"/></svg>