<svg xmlns="http://www.w3.org/2000/svg" xmlns:xlink="http://www.w3.org/1999/xlink" width="40" zoomAndPan="magnify" viewBox="0 0 30 30.000001" height="40" preserveAspectRatio="xMidYMid meet" version="1.0"><defs><clipPath id="id1"><path d="M 2.246094 0.457031 L 27.648438 0.457031 L 27.648438 28.765625 L 2.246094 28.765625 Z M 2.246094 0.457031 " clip-rule="nonzero"/></clipPath></defs><g clip-path="url(#id1)"><path fill="#8cc84b" d="M 13.773438 0.835938 C 14.472656 0.433594 15.363281 0.433594 16.042969 0.835938 L 26.460938 6.773438 C 27.113281 7.140625 27.550781 7.875 27.542969 8.636719 L 27.542969 20.539062 C 27.546875 21.332031 27.070312 22.082031 26.382812 22.445312 L 16.019531 28.355469 C 15.65625 28.558594 15.269531 28.652344 14.859375 28.640625 C 14.445312 28.628906 14.066406 28.511719 13.714844 28.289062 L 10.605469 26.472656 C 10.394531 26.347656 10.15625 26.246094 10.007812 26.039062 C 10.140625 25.859375 10.375 25.835938 10.566406 25.753906 C 11 25.617188 11.394531 25.402344 11.792969 25.175781 C 11.894531 25.105469 12.015625 25.132812 12.113281 25.195312 L 14.761719 26.746094 C 14.953125 26.855469 15.144531 26.710938 15.308594 26.617188 L 25.484375 20.8125 C 25.609375 20.753906 25.679688 20.617188 25.667969 20.480469 L 25.667969 8.6875 C 25.679688 8.53125 25.589844 8.386719 25.449219 8.320312 L 15.113281 2.4375 C 14.976562 2.34375 14.84375 2.34375 14.707031 2.4375 L 4.386719 8.332031 C 4.246094 8.398438 4.148438 8.539062 4.167969 8.699219 L 4.167969 20.488281 C 4.15625 20.628906 4.226562 20.757812 4.355469 20.820312 L 7.113281 22.394531 C 7.628906 22.675781 8.265625 22.832031 8.835938 22.625 C 9.09375 22.53125 9.296875 22.367188 9.453125 22.140625 C 9.609375 21.914062 9.683594 21.660156 9.683594 21.382812 L 9.6875 9.664062 C 9.675781 9.492188 9.835938 9.347656 10.003906 9.363281 L 11.328125 9.363281 C 11.503906 9.359375 11.640625 9.546875 11.617188 9.722656 L 11.613281 21.515625 C 11.617188 22.5625 11.191406 23.703125 10.230469 24.214844 C 9.050781 24.832031 7.589844 24.703125 6.421875 24.109375 L 3.457031 22.453125 C 2.757812 22.101562 2.289062 21.339844 2.292969 20.546875 L 2.292969 8.644531 C 2.296875 8.25 2.398438 7.882812 2.601562 7.546875 C 2.800781 7.207031 3.070312 6.945312 3.414062 6.753906 Z M 16.777344 9.085938 C 18.285156 9 19.898438 9.027344 21.253906 9.777344 C 22.304688 10.355469 22.886719 11.558594 22.902344 12.738281 C 22.875 12.898438 22.710938 12.988281 22.558594 12.976562 C 22.125 12.972656 21.6875 12.980469 21.25 12.972656 C 21.0625 12.980469 20.957031 12.808594 20.933594 12.640625 C 20.804688 12.078125 20.5 11.519531 19.976562 11.246094 C 19.171875 10.835938 18.234375 10.859375 17.355469 10.867188 C 16.714844 10.902344 16.023438 10.957031 15.480469 11.339844 C 15.0625 11.628906 14.9375 12.21875 15.085938 12.679688 C 15.226562 13.019531 15.613281 13.125 15.925781 13.226562 C 17.742188 13.707031 19.667969 13.667969 21.449219 14.292969 C 22.183594 14.550781 22.90625 15.050781 23.160156 15.832031 C 23.488281 16.875 23.34375 18.125 22.609375 18.964844 C 22.011719 19.65625 21.144531 20.023438 20.277344 20.238281 C 19.121094 20.496094 17.925781 20.503906 16.753906 20.386719 C 15.652344 20.261719 14.507812 19.96875 13.65625 19.210938 C 12.929688 18.570312 12.574219 17.578125 12.609375 16.617188 C 12.617188 16.453125 12.777344 16.34375 12.933594 16.355469 L 14.242188 16.355469 C 14.417969 16.34375 14.546875 16.496094 14.554688 16.664062 C 14.636719 17.191406 14.835938 17.765625 15.300781 18.074219 C 16.195312 18.660156 17.316406 18.617188 18.339844 18.632812 C 19.191406 18.597656 20.140625 18.585938 20.835938 18.015625 C 21.203125 17.695312 21.308594 17.152344 21.210938 16.6875 C 21.105469 16.292969 20.6875 16.113281 20.339844 15.980469 C 18.546875 15.410156 16.601562 15.617188 14.824219 14.96875 C 14.105469 14.710938 13.40625 14.222656 13.132812 13.476562 C 12.746094 12.417969 12.921875 11.105469 13.734375 10.292969 C 14.519531 9.488281 15.671875 9.175781 16.761719 9.066406 Z M 16.777344 9.085938 " fill-opacity="1" fill-rule="nonzero"/></g></svg>