<svg xmlns="http://www.w3.org/2000/svg" xmlns:xlink="http://www.w3.org/1999/xlink" width="40" zoomAndPan="magnify" viewBox="0 0 30 30.000001" height="40" preserveAspectRatio="xMidYMid meet" version="1.0"><defs><clipPath id="id1"><path d="M 1 2 L 29.285156 2 L 29.285156 27.671875 L 1 27.671875 Z M 1 2 " clip-rule="nonzero"/></clipPath></defs><g clip-path="url(#id1)"><path fill="#00d8ff" d="M 24.234375 10.195312 C 23.945312 10.09375 23.640625 10 23.328125 9.910156 C 23.378906 9.699219 23.425781 9.492188 23.46875 9.289062 C 24.15625 5.957031 23.707031 3.273438 22.167969 2.390625 C 20.695312 1.542969 18.285156 2.425781 15.851562 4.539062 C 15.617188 4.742188 15.382812 4.957031 15.148438 5.183594 C 14.988281 5.03125 14.835938 4.886719 14.679688 4.75 C 12.128906 2.492188 9.570312 1.539062 8.035156 2.425781 C 6.5625 3.277344 6.125 5.800781 6.746094 8.957031 C 6.804688 9.265625 6.875 9.574219 6.953125 9.890625 C 6.59375 9.996094 6.242188 10.105469 5.910156 10.21875 C 2.917969 11.261719 1.007812 12.890625 1.007812 14.582031 C 1.007812 16.328125 3.058594 18.078125 6.171875 19.140625 C 6.417969 19.222656 6.675781 19.304688 6.9375 19.378906 C 6.851562 19.722656 6.777344 20.054688 6.714844 20.382812 C 6.125 23.488281 6.585938 25.953125 8.054688 26.796875 C 9.570312 27.667969 12.117188 26.773438 14.597656 24.613281 C 14.792969 24.441406 14.988281 24.261719 15.1875 24.070312 C 15.441406 24.316406 15.695312 24.546875 15.949219 24.765625 C 18.351562 26.824219 20.722656 27.65625 22.1875 26.8125 C 23.703125 25.9375 24.199219 23.289062 23.558594 20.066406 C 23.507812 19.820312 23.453125 19.570312 23.386719 19.316406 C 23.566406 19.261719 23.742188 19.207031 23.914062 19.152344 C 27.152344 18.078125 29.261719 16.351562 29.261719 14.582031 C 29.261719 12.882812 27.289062 11.242188 24.234375 10.195312 Z M 23.535156 18.007812 C 23.378906 18.058594 23.222656 18.109375 23.058594 18.15625 C 22.703125 17.027344 22.21875 15.828125 21.628906 14.585938 C 22.191406 13.375 22.65625 12.191406 23.003906 11.070312 C 23.292969 11.152344 23.574219 11.242188 23.84375 11.332031 C 26.457031 12.230469 28.050781 13.558594 28.050781 14.582031 C 28.050781 15.667969 26.332031 17.082031 23.535156 18.007812 Z M 22.375 20.300781 C 22.65625 21.726562 22.695312 23.011719 22.507812 24.019531 C 22.339844 24.925781 22.003906 25.527344 21.585938 25.769531 C 20.695312 26.28125 18.789062 25.613281 16.738281 23.851562 C 16.5 23.648438 16.265625 23.433594 16.027344 23.207031 C 16.820312 22.339844 17.617188 21.328125 18.394531 20.207031 C 19.761719 20.085938 21.050781 19.890625 22.222656 19.621094 C 22.277344 19.851562 22.328125 20.078125 22.375 20.300781 Z M 10.640625 25.679688 C 9.769531 25.988281 9.078125 25.996094 8.660156 25.753906 C 7.765625 25.242188 7.398438 23.261719 7.902344 20.609375 C 7.960938 20.304688 8.027344 19.992188 8.109375 19.671875 C 9.265625 19.929688 10.546875 20.113281 11.914062 20.222656 C 12.699219 21.320312 13.515625 22.328125 14.339844 23.210938 C 14.160156 23.386719 13.980469 23.550781 13.800781 23.707031 C 12.707031 24.660156 11.609375 25.339844 10.640625 25.679688 Z M 6.566406 18 C 5.1875 17.53125 4.050781 16.921875 3.269531 16.253906 C 2.570312 15.65625 2.214844 15.0625 2.214844 14.582031 C 2.214844 13.554688 3.75 12.246094 6.308594 11.355469 C 6.617188 11.25 6.941406 11.148438 7.277344 11.050781 C 7.632812 12.199219 8.097656 13.398438 8.65625 14.609375 C 8.089844 15.839844 7.617188 17.058594 7.261719 18.21875 C 7.019531 18.148438 6.789062 18.078125 6.566406 18 Z M 7.929688 8.726562 C 7.398438 6.019531 7.753906 3.980469 8.640625 3.46875 C 9.585938 2.921875 11.675781 3.699219 13.878906 5.652344 C 14.019531 5.773438 14.160156 5.90625 14.300781 6.039062 C 13.480469 6.921875 12.667969 7.921875 11.894531 9.011719 C 10.566406 9.132812 9.292969 9.332031 8.125 9.59375 C 8.050781 9.300781 7.984375 9.011719 7.929688 8.726562 Z M 20.117188 11.730469 C 19.835938 11.246094 19.550781 10.777344 19.257812 10.320312 C 20.160156 10.433594 21.023438 10.585938 21.832031 10.769531 C 21.589844 11.546875 21.289062 12.359375 20.929688 13.195312 C 20.675781 12.710938 20.402344 12.21875 20.117188 11.730469 Z M 15.148438 6.902344 C 15.703125 7.503906 16.261719 8.175781 16.808594 8.902344 C 16.257812 8.875 15.699219 8.863281 15.132812 8.863281 C 14.574219 8.863281 14.019531 8.875 13.46875 8.902344 C 14.019531 8.179688 14.582031 7.507812 15.148438 6.902344 Z M 10.144531 11.738281 C 9.867188 12.21875 9.601562 12.707031 9.347656 13.195312 C 8.996094 12.363281 8.695312 11.546875 8.449219 10.753906 C 9.257812 10.574219 10.117188 10.429688 11.011719 10.316406 C 10.714844 10.777344 10.425781 11.253906 10.144531 11.738281 Z M 11.039062 18.929688 C 10.113281 18.828125 9.238281 18.6875 8.433594 18.511719 C 8.683594 17.707031 8.992188 16.875 9.347656 16.023438 C 9.601562 16.511719 9.871094 17 10.152344 17.484375 C 10.4375 17.976562 10.734375 18.457031 11.039062 18.929688 Z M 15.179688 22.34375 C 14.609375 21.730469 14.039062 21.046875 13.480469 20.316406 C 14.019531 20.335938 14.574219 20.347656 15.132812 20.347656 C 15.710938 20.347656 16.28125 20.335938 16.839844 20.3125 C 16.289062 21.054688 15.734375 21.738281 15.179688 22.34375 Z M 20.941406 15.980469 C 21.320312 16.839844 21.636719 17.671875 21.890625 18.460938 C 21.070312 18.648438 20.1875 18.796875 19.253906 18.910156 C 19.546875 18.445312 19.835938 17.964844 20.121094 17.472656 C 20.410156 16.976562 20.683594 16.476562 20.941406 15.980469 Z M 19.074219 16.875 C 18.632812 17.636719 18.179688 18.367188 17.71875 19.054688 C 16.882812 19.113281 16.015625 19.144531 15.132812 19.144531 C 14.253906 19.144531 13.398438 19.117188 12.574219 19.0625 C 12.097656 18.367188 11.632812 17.636719 11.195312 16.878906 C 10.757812 16.125 10.355469 15.367188 9.988281 14.609375 C 10.355469 13.851562 10.757812 13.089844 11.191406 12.339844 C 11.628906 11.582031 12.085938 10.855469 12.5625 10.164062 C 13.402344 10.101562 14.261719 10.066406 15.132812 10.066406 C 16.007812 10.066406 16.871094 10.101562 17.710938 10.164062 C 18.179688 10.851562 18.632812 11.578125 19.074219 12.332031 C 19.515625 13.09375 19.921875 13.851562 20.289062 14.59375 C 19.921875 15.347656 19.515625 16.109375 19.074219 16.875 Z M 21.566406 3.429688 C 22.511719 3.976562 22.878906 6.171875 22.285156 9.046875 C 22.246094 9.230469 22.203125 9.417969 22.160156 9.609375 C 20.984375 9.339844 19.714844 9.136719 18.382812 9.011719 C 17.605469 7.910156 16.800781 6.90625 15.992188 6.039062 C 16.210938 5.832031 16.425781 5.632812 16.640625 5.445312 C 18.726562 3.636719 20.679688 2.921875 21.566406 3.429688 Z M 15.132812 12.0625 C 16.527344 12.0625 17.65625 13.191406 17.65625 14.582031 C 17.65625 15.96875 16.527344 17.097656 15.132812 17.097656 C 13.742188 17.097656 12.609375 15.96875 12.609375 14.582031 C 12.609375 13.191406 13.742188 12.0625 15.132812 12.0625 Z M 15.132812 12.0625 " fill-opacity="1" fill-rule="nonzero"/></g></svg>