<svg xmlns="http://www.w3.org/2000/svg" xmlns:xlink="http://www.w3.org/1999/xlink" width="40" zoomAndPan="magnify" viewBox="0 0 30 30.000001" height="40" preserveAspectRatio="xMidYMid meet" version="1.0"><defs><clipPath id="id1"><path d="M 1 1.78125 L 29 1.78125 L 29 27.183594 L 1 27.183594 Z M 1 1.78125 " clip-rule="nonzero"/></clipPath></defs><g clip-path="url(#id1)"><path fill="#764abc" d="M 20.507812 19.527344 C 21.5 19.425781 22.253906 18.570312 22.21875 17.550781 C 22.183594 16.527344 21.328125 15.710938 20.304688 15.710938 L 20.234375 15.710938 C 19.175781 15.746094 18.351562 16.632812 18.386719 17.6875 C 18.421875 18.199219 18.625 18.640625 18.933594 18.945312 C 17.769531 21.230469 15.992188 22.898438 13.324219 24.292969 C 11.507812 25.246094 9.628906 25.585938 7.746094 25.347656 C 6.207031 25.144531 5.007812 24.464844 4.257812 23.339844 C 3.160156 21.671875 3.058594 19.867188 3.980469 18.0625 C 4.632812 16.765625 5.660156 15.8125 6.308594 15.335938 C 6.171875 14.894531 5.964844 14.144531 5.863281 13.601562 C 0.902344 17.175781 1.417969 22.011719 2.921875 24.292969 C 4.050781 25.996094 6.34375 27.050781 8.875 27.050781 C 9.558594 27.050781 10.242188 26.984375 10.929688 26.8125 C 15.308594 25.964844 18.625 23.375 20.507812 19.527344 Z M 26.53125 15.304688 C 23.929688 12.273438 20.097656 10.601562 15.71875 10.601562 L 15.171875 10.601562 C 14.863281 9.988281 14.210938 9.582031 13.492188 9.582031 L 13.425781 9.582031 C 12.363281 9.613281 11.542969 10.5 11.578125 11.554688 C 11.613281 12.578125 12.46875 13.394531 13.492188 13.394531 L 13.5625 13.394531 C 14.316406 13.363281 14.964844 12.886719 15.238281 12.238281 L 15.855469 12.238281 C 18.453125 12.238281 20.917969 12.988281 23.144531 14.453125 C 24.851562 15.574219 26.085938 17.039062 26.769531 18.808594 C 27.351562 20.242188 27.316406 21.636719 26.699219 22.828125 C 25.742188 24.632812 24.132812 25.621094 22.011719 25.621094 C 20.644531 25.621094 19.34375 25.214844 18.660156 24.90625 C 18.285156 25.246094 17.597656 25.792969 17.121094 26.132812 C 18.59375 26.8125 20.097656 27.1875 21.535156 27.1875 C 24.820312 27.1875 27.25 25.382812 28.171875 23.578125 C 29.164062 21.605469 29.09375 18.199219 26.53125 15.304688 Z M 9.148438 20.105469 C 9.183594 21.125 10.039062 21.945312 11.0625 21.945312 L 11.132812 21.945312 C 12.191406 21.910156 13.015625 21.023438 12.980469 19.96875 C 12.945312 18.945312 12.089844 18.128906 11.0625 18.128906 L 10.996094 18.128906 C 10.925781 18.128906 10.824219 18.128906 10.757812 18.164062 C 9.351562 15.847656 8.773438 13.328125 8.976562 10.601562 C 9.113281 8.558594 9.796875 6.789062 10.996094 5.324219 C 11.988281 4.0625 13.902344 3.449219 15.203125 3.417969 C 18.832031 3.347656 20.371094 7.84375 20.472656 9.648438 C 20.917969 9.75 21.671875 9.988281 22.183594 10.160156 C 21.773438 4.644531 18.351562 1.78125 15.066406 1.78125 C 11.988281 1.78125 9.148438 3.996094 8.019531 7.265625 C 6.445312 11.625 7.472656 15.8125 9.386719 19.117188 C 9.214844 19.355469 9.113281 19.730469 9.148438 20.105469 Z M 9.148438 20.105469 " fill-opacity="1" fill-rule="nonzero"/></g></svg>